<svg width="280" height="60" viewBox="0 0 280 60" fill="none" xmlns="http://www.w3.org/2000/svg">
<path d="M59.8914 29.9584C59.8914 46.4812 46.4956 59.877 29.9727 59.877C13.4486 59.877 0.0535889 46.4812 0.0535889 29.9584C0.0535889 13.4348 13.4486 0.0396815 29.9727 0.0396815C46.4956 0.0396815 59.8914 13.4348 59.8914 29.9584Z" fill="#E1D3ED"/>
<path d="M56.1028 36.4624C56.1028 40.054 53.1909 42.9665 49.5987 42.9665H11.0076C7.41593 42.9665 4.50354 40.054 4.50354 36.4624C4.50354 32.8709 7.41593 29.9584 11.0076 29.9584H49.5987C53.1909 29.9584 56.1028 32.8709 56.1028 36.4624Z" fill="#3A307B"/>
<path d="M11.0521 36.4546L12.8217 37.4517L12.3605 38.2686L10.5618 37.213L10.5765 39.2358H9.6847L9.6992 37.213L7.90044 38.2686L7.4393 37.4517L9.22362 36.4546L7.4393 35.4738L7.90044 34.6407L9.6992 35.6969L9.6847 33.6891H10.5765L10.5618 35.6969L12.3605 34.6407L12.8217 35.4738L11.0521 36.4546Z" fill="white"/>
<path d="M21.2858 36.4546L23.0554 37.4517L22.5943 38.2686L20.7954 37.213L20.8102 39.2358H19.9184L19.9329 37.213L18.1342 38.2686L17.673 37.4517L19.4573 36.4546L17.673 35.4738L18.1342 34.6407L19.9329 35.6969L19.9184 33.6891H20.8102L20.7954 35.6969L22.5943 34.6407L23.0554 35.4738L21.2858 36.4546Z" fill="white"/>
<path d="M31.5194 36.4546L33.2891 37.4517L32.828 38.2686L31.0296 37.213L31.0439 39.2358H30.1522L30.1665 37.213L28.3681 38.2686L27.9067 37.4517L29.6911 36.4546L27.9067 35.4738L28.3681 34.6407L30.1665 35.6969L30.1522 33.6891H31.0439L31.0296 35.6969L32.828 34.6407L33.2891 35.4738L31.5194 36.4546Z" fill="white"/>
<path d="M41.7535 36.4546L43.5232 37.4517L43.0621 38.2686L41.2631 37.213L41.2774 39.2358H40.3857L40.4006 37.213L38.6016 38.2686L38.1405 37.4517L39.9245 36.4546L38.1405 35.4738L38.6016 34.6407L40.4006 35.6969L40.3857 33.6891H41.2774L41.2631 35.6969L43.0621 34.6407L43.5232 35.4738L41.7535 36.4546Z" fill="white"/>
<path d="M51.987 36.4546L53.7567 37.4517L53.2956 38.2686L51.4966 37.213L51.5115 39.2358H50.6198L50.6341 37.213L48.8351 38.2686L48.374 37.4517L50.1587 36.4546L48.374 35.4738L48.8351 34.6407L50.6341 35.6969L50.6198 33.6891H51.5115L51.4966 35.6969L53.2956 34.6407L53.7567 35.4738L51.987 36.4546Z" fill="white"/>
<path d="M40.9554 22.292C38.9437 22.292 37.3073 20.6549 37.3073 18.6439C37.3073 16.6322 38.9437 14.9951 40.9554 14.9951C42.9672 14.9951 44.6042 16.6322 44.6042 18.6439C44.6042 20.6549 42.9672 22.292 40.9554 22.292ZM40.9554 12.3935C37.9558 12.3935 35.4446 14.519 34.8442 17.3431H20.718H18.1164H16.0025H13.8887H13.4009V25.3105H16.0025V19.9447H18.1164V22.4748H20.718V19.9447H34.8442C35.4446 22.7681 37.9558 24.8936 40.9554 24.8936C44.4019 24.8936 47.2059 22.0897 47.2059 18.6439C47.2059 15.1974 44.4019 12.3935 40.9554 12.3935Z" fill="#3A307B"/>
<path d="M88.8182 42.1406C88.7287 41.8295 88.603 41.5547 88.4411 41.3161C88.2791 41.0732 88.081 40.8686 87.8466 40.7024C87.6165 40.532 87.3523 40.402 87.054 40.3125C86.7599 40.223 86.4339 40.1783 86.076 40.1783C85.407 40.1783 84.8189 40.3445 84.3118 40.6768C83.8089 41.0092 83.4169 41.4929 83.1357 42.1278C82.8544 42.7585 82.7138 43.5298 82.7138 44.4418C82.7138 45.3537 82.8523 46.1293 83.1293 46.7685C83.4063 47.4077 83.7983 47.8956 84.3054 48.2322C84.8125 48.5646 85.4112 48.7308 86.1016 48.7308C86.728 48.7308 87.2628 48.62 87.706 48.3984C88.1534 48.1726 88.4943 47.8551 88.7287 47.446C88.9673 47.0369 89.0866 46.5533 89.0866 45.995L89.6491 46.0781H86.2741V43.9943H91.7521V45.6435C91.7521 46.794 91.5092 47.7827 91.0234 48.6094C90.5376 49.4318 89.8686 50.0668 89.0163 50.5142C88.1641 50.9574 87.1882 51.179 86.0888 51.179C84.8615 51.179 83.7834 50.9084 82.8544 50.3672C81.9254 49.8217 81.201 49.0483 80.6811 48.0469C80.1655 47.0412 79.9077 45.848 79.9077 44.4673C79.9077 43.4062 80.0611 42.4602 80.3679 41.6293C80.679 40.794 81.1136 40.0866 81.6719 39.5071C82.2301 38.9276 82.88 38.4865 83.6214 38.1839C84.3629 37.8814 85.1662 37.7301 86.0312 37.7301C86.7727 37.7301 87.4631 37.8388 88.1023 38.0561C88.7415 38.2692 89.3082 38.5717 89.8026 38.9638C90.3011 39.3558 90.7081 39.8224 91.0234 40.3636C91.3388 40.9006 91.5412 41.4929 91.6307 42.1406H88.8182ZM95.6832 51H92.7173L97.2365 37.9091H100.803L105.316 51H102.35L99.071 40.9006H98.9688L95.6832 51ZM95.4979 45.8544H102.504V48.0149H95.4979V45.8544ZM106.892 37.9091H110.305L113.91 46.7045H114.064L117.669 37.9091H121.082V51H118.397V42.4794H118.289L114.901 50.9361H113.073L109.685 42.4474H109.576V51H106.892V37.9091ZM123.362 51V37.9091H132.183V40.1911H126.13V43.3104H131.73V45.5923H126.13V48.718H132.209V51H123.362ZM141.485 41.674C141.434 41.1584 141.215 40.7578 140.827 40.4723C140.439 40.1868 139.913 40.044 139.248 40.044C138.797 40.044 138.415 40.108 138.104 40.2358C137.793 40.3594 137.554 40.532 137.388 40.7536C137.226 40.9751 137.145 41.2266 137.145 41.5078C137.137 41.7422 137.186 41.9467 137.292 42.1214C137.403 42.2962 137.554 42.4474 137.746 42.5753C137.938 42.6989 138.159 42.8075 138.411 42.9013C138.662 42.9908 138.931 43.0675 139.216 43.1314L140.392 43.4126C140.963 43.5405 141.488 43.7109 141.965 43.924C142.442 44.1371 142.855 44.3991 143.205 44.7102C143.554 45.0213 143.825 45.3878 144.017 45.8097C144.213 46.2315 144.313 46.7152 144.317 47.2607C144.313 48.0618 144.108 48.7564 143.703 49.3445C143.303 49.9283 142.723 50.3821 141.965 50.706C141.211 51.0256 140.301 51.1854 139.235 51.1854C138.179 51.1854 137.258 51.0234 136.474 50.6996C135.694 50.3757 135.085 49.8963 134.646 49.2614C134.211 48.6222 133.983 47.8317 133.962 46.8899H136.64C136.67 47.3288 136.796 47.6953 137.017 47.9893C137.243 48.2791 137.544 48.4986 137.919 48.6477C138.298 48.7926 138.726 48.8651 139.203 48.8651C139.672 48.8651 140.079 48.7969 140.424 48.6605C140.774 48.5241 141.044 48.3345 141.236 48.0916C141.428 47.8487 141.524 47.5696 141.524 47.2543C141.524 46.9602 141.436 46.7131 141.262 46.5128C141.091 46.3125 140.84 46.142 140.507 46.0014C140.179 45.8608 139.777 45.733 139.299 45.6179L137.874 45.2599C136.77 44.9915 135.899 44.5717 135.26 44.0007C134.62 43.4297 134.303 42.6605 134.307 41.6932C134.303 40.9006 134.514 40.2081 134.94 39.6158C135.37 39.0234 135.961 38.5611 136.711 38.2287C137.461 37.8963 138.313 37.7301 139.267 37.7301C140.239 37.7301 141.087 37.8963 141.811 38.2287C142.54 38.5611 143.107 39.0234 143.512 39.6158C143.917 40.2081 144.125 40.8942 144.138 41.674H141.485ZM150.345 51V37.9091H155.51C156.502 37.9091 157.348 38.0987 158.047 38.478C158.746 38.853 159.279 39.375 159.645 40.044C160.016 40.7088 160.201 41.4759 160.201 42.3452C160.201 43.2145 160.014 43.9815 159.639 44.6463C159.264 45.3111 158.721 45.8288 158.009 46.1996C157.301 46.5703 156.445 46.7557 155.439 46.7557H152.147V44.5376H154.992C155.525 44.5376 155.963 44.446 156.309 44.2628C156.658 44.0753 156.918 43.8175 157.088 43.4893C157.263 43.157 157.35 42.7756 157.35 42.3452C157.35 41.9105 157.263 41.5312 157.088 41.2074C156.918 40.8793 156.658 40.6257 156.309 40.4467C155.959 40.2635 155.516 40.1719 154.979 40.1719H153.113V51H150.345ZM161.999 51V37.9091H167.164C168.153 37.9091 168.996 38.0859 169.695 38.4396C170.398 38.7891 170.933 39.2855 171.3 39.929C171.67 40.5682 171.856 41.3203 171.856 42.1854C171.856 43.0547 171.668 43.8026 171.293 44.429C170.918 45.0511 170.375 45.5284 169.663 45.8608C168.956 46.1932 168.099 46.3594 167.094 46.3594H163.635V44.1349H166.646C167.175 44.1349 167.613 44.0625 167.963 43.9176C168.312 43.7727 168.572 43.5554 168.743 43.2656C168.917 42.9759 169.005 42.6158 169.005 42.1854C169.005 41.7507 168.917 41.3842 168.743 41.0859C168.572 40.7876 168.31 40.5618 167.956 40.4084C167.607 40.2507 167.166 40.1719 166.633 40.1719H164.767V51H161.999ZM169.069 45.0426L172.322 51H169.267L166.084 45.0426H169.069ZM173.812 51V37.9091H182.633V40.1911H176.579V43.3104H182.179V45.5923H176.579V48.718H182.658V51H173.812ZM184.833 37.9091H188.246L191.852 46.7045H192.005L195.61 37.9091H199.023V51H196.339V42.4794H196.23L192.842 50.9361H191.014L187.626 42.4474H187.518V51H184.833V37.9091ZM204.072 37.9091V51H201.304V37.9091H204.072ZM214.435 37.9091H217.202V46.4105C217.202 47.3651 216.974 48.2003 216.518 48.9162C216.067 49.6321 215.434 50.1903 214.62 50.5909C213.806 50.9872 212.858 51.1854 211.776 51.1854C210.689 51.1854 209.739 50.9872 208.925 50.5909C208.111 50.1903 207.478 49.6321 207.026 48.9162C206.575 48.2003 206.349 47.3651 206.349 46.4105V37.9091H209.116V46.174C209.116 46.6726 209.225 47.1158 209.442 47.5036C209.664 47.8913 209.975 48.196 210.376 48.4176C210.776 48.6392 211.243 48.75 211.776 48.75C212.313 48.75 212.779 48.6392 213.175 48.4176C213.576 48.196 213.885 47.8913 214.102 47.5036C214.324 47.1158 214.435 46.6726 214.435 46.174V37.9091ZM219.48 37.9091H222.893L226.498 46.7045H226.651L230.257 37.9091H233.67V51H230.985V42.4794H230.877L227.489 50.9361H225.661L222.273 42.4474H222.164V51H219.48V37.9091Z" fill="#FFDF6F"/>
<path d="M95.4062 7.71875H100.312V22.8125C100.312 24.5104 99.9115 26 99.1094 27.2812C98.3073 28.5521 97.1823 29.5417 95.7344 30.25C94.2865 30.9583 92.599 31.3125 90.6719 31.3125C88.7344 31.3125 87.0417 30.9583 85.5938 30.25C84.1562 29.5417 83.0365 28.5521 82.2344 27.2812C81.4323 26 81.0312 24.5104 81.0312 22.8125V7.71875H85.9375V22.4062C85.9375 23.7396 86.3698 24.8385 87.2344 25.7031C88.099 26.5573 89.2448 26.9844 90.6719 26.9844C92.099 26.9844 93.2448 26.5573 94.1094 25.7031C94.974 24.8385 95.4062 23.7396 95.4062 22.4062V7.71875ZM123.844 7.71875V31H119.578L109.469 16.3594H109.281V31H104.375V7.71875H108.688L118.734 22.3594H118.938V7.71875H123.844ZM127.906 31V7.71875H137.219C139.781 7.71875 141.708 8.28125 143 9.40625C144.292 10.5208 144.938 11.9479 144.938 13.6875C144.938 15.0521 144.536 16.1615 143.734 17.0156C142.943 17.8594 141.943 18.4167 140.734 18.6875V18.9219C141.62 18.9635 142.448 19.2135 143.219 19.6719C144 20.1302 144.63 20.776 145.109 21.6094C145.599 22.4323 145.844 23.4167 145.844 24.5625C145.844 25.7917 145.542 26.8958 144.938 27.875C144.333 28.8438 143.438 29.6094 142.25 30.1719C141.062 30.724 139.594 31 137.844 31H127.906ZM136.469 17.4688C137.469 17.4688 138.302 17.2031 138.969 16.6719C139.635 16.1406 139.969 15.4167 139.969 14.5C139.969 13.6667 139.672 12.9948 139.078 12.4844C138.484 11.9635 137.646 11.7031 136.562 11.7031H132.812V17.4688H136.469ZM136.828 26.9844C138.203 26.9844 139.203 26.7188 139.828 26.1875C140.464 25.6562 140.781 24.9531 140.781 24.0781C140.781 23.1198 140.438 22.3333 139.75 21.7188C139.062 21.0938 138.13 20.7812 136.953 20.7812H132.812V26.9844H136.828ZM149.062 31V7.71875H153.969V26.9375H163.953V31H149.062ZM177.734 31.3125C175.672 31.3125 173.818 30.8438 172.172 29.9062C170.526 28.9688 169.224 27.6094 168.266 25.8281C167.307 24.0469 166.828 21.8958 166.828 19.375C166.828 16.8333 167.307 14.6719 168.266 12.8906C169.224 11.1094 170.526 9.75 172.172 8.8125C173.818 7.875 175.672 7.40625 177.734 7.40625C179.797 7.40625 181.646 7.875 183.281 8.8125C184.927 9.75 186.229 11.1094 187.188 12.8906C188.146 14.6719 188.625 16.8333 188.625 19.375C188.625 21.9167 188.146 24.0781 187.188 25.8594C186.229 27.6302 184.927 28.9844 183.281 29.9219C181.646 30.849 179.797 31.3125 177.734 31.3125ZM171.812 19.375C171.812 21.8333 172.349 23.7135 173.422 25.0156C174.505 26.3177 175.943 26.9688 177.734 26.9688C179.516 26.9688 180.943 26.3177 182.016 25.0156C183.099 23.7135 183.641 21.8333 183.641 19.375C183.641 16.9062 183.099 15.0208 182.016 13.7188C180.943 12.4062 179.516 11.75 177.734 11.75C175.943 11.75 174.505 12.4062 173.422 13.7188C172.349 15.0208 171.812 16.9062 171.812 19.375ZM202.703 31.3125C200.63 31.3125 198.776 30.8438 197.141 29.9062C195.505 28.9688 194.214 27.6094 193.266 25.8281C192.328 24.0469 191.859 21.8958 191.859 19.375C191.859 16.8333 192.333 14.6719 193.281 12.8906C194.24 11.1094 195.536 9.75 197.172 8.8125C198.818 7.875 200.661 7.40625 202.703 7.40625C204.505 7.40625 206.125 7.73958 207.562 8.40625C209.01 9.07292 210.193 10.0365 211.109 11.2969C212.026 12.5573 212.589 14.0833 212.797 15.875H207.828C207.641 14.5938 207.094 13.5885 206.188 12.8594C205.281 12.1198 204.156 11.75 202.812 11.75C201.021 11.75 199.578 12.4167 198.484 13.75C197.391 15.0729 196.844 16.9479 196.844 19.375C196.844 21.8542 197.391 23.7396 198.484 25.0312C199.589 26.3229 201.026 26.9688 202.797 26.9688C204.099 26.9688 205.203 26.625 206.109 25.9375C207.026 25.25 207.599 24.2865 207.828 23.0469H212.797C212.62 24.474 212.109 25.8177 211.266 27.0781C210.432 28.3385 209.292 29.3594 207.844 30.1406C206.406 30.9219 204.693 31.3125 202.703 31.3125ZM216.344 31V7.71875H221.25V17.9844H221.547L229.938 7.71875H235.828L227.203 18.1406L235.938 31H230.031L223.672 21.4375L221.25 24.3906V31H216.344ZM238.438 31V7.71875H254.125V11.7812H243.344V17.25H253.297V21.2344H243.344V26.9375H254.156V31H238.438ZM266.281 31H258.031V7.71875H266.344C268.688 7.71875 270.703 8.1875 272.391 9.125C274.078 10.0521 275.375 11.3854 276.281 13.125C277.198 14.8542 277.656 16.9271 277.656 19.3438C277.656 21.7708 277.198 23.8542 276.281 25.5938C275.375 27.3333 274.073 28.6719 272.375 29.6094C270.677 30.5365 268.646 31 266.281 31ZM262.938 26.7812H266.062C268.26 26.7812 269.927 26.1927 271.062 25.0156C272.198 23.8385 272.766 21.9479 272.766 19.3438C272.766 16.7604 272.198 14.8802 271.062 13.7031C269.927 12.526 268.26 11.9375 266.062 11.9375H262.938V26.7812Z" fill="#E1D3ED"/>
</svg>
